<svg version="1.1" xmlns="http://www.w3.org/2000/svg" viewBox="-5.500001 -5.500001 11.000002 11.000002" fill="none" stroke="black" stroke-width="0.6%" vector-effect="non-scaling-stroke">
    <path d="M 1.35 4.29273 A 0.5000000000000041 0.5000000000000041 0 0 0 1.07897 4.5 L 0 4.5 L -1.07897 4.5 A 0.5000000000000013 0.5000000000000013 0 0 0 -1.35 4.29273 A 4.5 4.5 0 0 1 -4.5 0 A 4.5 4.5 0 0 1 -1.35 -4.29273 A 0.5000000000000041 0.5000000000000041 0 0 0 -1.07897 -4.5 L 0 -4.5 L 1.07897 -4.5 A 0.5000000000000013 0.5000000000000013 0 0 0 1.35 -4.29273 A 4.5 4.5 0 0 1 4.5 0 A 4.5 4.5 0 0 1 1.35 4.29273 A 0.5000000000000041 0.5000000000000041 0 0 0 1.07897 4.5 L 0 4.5 L -1.07897 4.5 A 0.5000000000000013 0.5000000000000013 0 0 0 -1.35 4.29273 A 4.5 4.5 0 0 1 -4.5 0 A 4.5 4.5 0 0 1 -1.35 -4.29273 A 0.5000000000000041 0.5000000000000041 0 0 0 -1.07897 -4.5 L 0 -4.5 L 1.07897 -4.5 A 0.5000000000000013 0.5000000000000013 0 0 0 1.35 -4.29273 A 4.5 4.5 0 0 1 4.5 0 A 4.5 4.5 0 0 1 1.35 4.29273 Z" />
    <path d="M 2 2.87228 A 3.5 3.5 0 0 0 3.5 0 A 3.5 3.5 0 0 0 2 -2.87228 L 2 2.87228 Z" />
    <path d="M -2 -2.87228 A 3.5 3.5 0 0 0 -3.5 0 A 3.5 3.5 0 0 0 -2 2.87228 L -2 -2.87228 Z" />
</svg>